<svg width="512" height="512" viewBox="0 0 512 512" fill="none" xmlns="http://www.w3.org/2000/svg">
<path d="M461.3 425.689C447.444 424.459 433.299 428.204 421.016 436.098L375.934 370.914C375.934 370.914 454.809 370.803 455.139 370.801C477.516 370.143 495.188 351.403 494.531 329.026L493.271 286.185C492.96 275.615 486.67 265.954 476.887 261.942C467.155 257.95 456.363 259.957 448.71 267.194C438.755 276.605 432.218 289.424 429.886 303.595C421.204 302.152 412.528 300.665 403.86 299.134C398.615 298.212 393.342 301.365 392.081 306.539C390.699 312.21 394.403 317.778 400.06 318.773C408.411 320.243 418.773 322.046 429.139 323.743L429.945 351.186L225.34 350.428C195.912 350.428 171.401 328.977 166.629 300.897H277.991C285.563 300.897 296.18 301.835 310.452 303.763C310.906 303.824 311.357 303.854 311.804 303.854C316.841 303.854 321.212 300.047 321.741 294.857C322.294 289.427 318.177 284.622 312.767 283.894C302.032 282.45 293.159 281.54 285.892 281.138L267.332 205.549C265.743 199.086 263.386 192.472 260.403 185.902C267.645 175.011 296.636 131.433 296.636 131.433C305.224 118.526 307.442 102.654 302.721 87.8865C297.997 73.1132 286.979 61.466 272.488 55.9309L193.123 25.6314C177.679 4.54999 149.927 -5.40418 123.685 2.95196C95.3745 11.9661 77.9492 39.3796 80.3573 67.8121L29.3514 128.549C19.4732 140.303 15.4741 155.694 18.3762 170.769C21.5882 187.503 33.7614 201.879 50.1457 208.288L76.5782 218.623L76.5792 501.999C76.5792 507.522 81.0573 511.999 86.5794 511.999H127.316C132.839 511.999 137.316 507.522 137.316 501.999V411.163H228.217V501.999C228.217 507.522 232.694 511.999 238.217 511.999H278.954C284.477 511.999 288.954 507.522 288.954 501.999V386.388C300.001 398.916 388.004 499.199 388.004 499.199C395.429 507.103 405.488 511.642 416.328 511.979C416.762 511.993 417.193 512 417.625 512C427.988 512 437.807 508.117 445.394 500.988L477.065 471.23C484.75 464.011 487.383 453.338 483.939 443.375C480.493 433.401 471.818 426.623 461.3 425.689ZM462.45 281.726C465.182 279.144 468.163 279.976 469.318 280.454C470.467 280.93 473.152 282.438 473.261 286.173L474.537 329.613C474.871 340.967 465.905 350.476 454.551 350.81L449.948 350.945L448.948 316.899C448.547 303.246 453.594 290.098 462.45 281.726ZM268.955 370.426V391.163H96.5795V370.426H268.955ZM172.67 350.426H137.318V257.601L144.047 285.013C145.054 289.107 145.734 293.274 146.081 297.476C147.812 318.491 157.743 337.211 172.67 350.426ZM283.67 93.9746C286.53 102.92 285.187 112.534 279.985 120.354C279.985 120.354 254.798 158.215 249.457 166.246C245.422 160.173 240.937 154.41 236.042 149.007C233.526 146.241 230.895 143.581 228.156 141.035C235.484 130.788 242.815 120.543 250.149 110.3C251.337 108.642 252.108 106.688 252.178 104.65C252.255 102.653 251.732 100.678 250.678 98.9805C249.624 97.2827 248.085 95.9391 246.261 95.1226C238.32 91.5735 211.493 79.5663 211.493 79.5663C211.235 74.1392 210.269 68.769 208.621 63.592L204.766 51.4848L265.353 74.6132C274.132 77.9663 280.809 85.0234 283.67 93.9746ZM208.962 100.345L226.923 108.384C222.09 115.136 217.263 121.886 212.435 128.635C207.795 125.607 203.073 123.05 198.325 120.999C203.12 114.833 206.726 107.829 208.962 100.345ZM129.753 22.0093C133.916 20.6794 138.259 20.0017 142.629 20.0003C160.657 20.0003 177.434 31.5625 183.189 49.6348L189.564 69.6581C196.678 92.0065 184.286 115.977 161.938 123.093C139.589 130.209 115.62 117.816 108.502 95.4676L102.127 75.4442C95.0125 53.0958 107.406 29.1254 129.753 22.0093ZM110.197 131.545C114.787 135.175 119.861 138.148 125.271 140.378C124.371 141.828 123.538 143.319 122.773 144.844C120.403 149.617 116.399 153.126 111.466 154.769C106.359 156.471 100.749 155.74 96.0595 153.096L94.6635 152.309L110.197 131.545ZM38.0165 166.993C36.2585 157.858 38.6805 148.536 44.6656 141.414L86.3414 91.7865L89.4454 101.536C91.1229 106.805 93.4937 111.828 96.4955 116.472L71.8301 149.444C70.9784 150.582 70.3793 151.889 70.0728 153.278C69.7664 154.667 69.7595 156.105 70.0528 157.496C70.3461 158.887 70.9328 160.2 71.7736 161.347C72.6145 162.494 73.6903 163.448 74.9292 164.146C83.8623 169.268 94.9155 176.381 105.513 175.754C109.372 175.749 113.21 175.167 116.898 174.029C127.18 170.87 135.851 163.476 140.674 153.766C141.45 152.204 142.342 150.702 143.341 149.274C144.391 147.778 145.559 146.369 146.834 145.06C147.581 145.089 148.328 145.104 149.074 145.105C155.344 145.105 161.721 144.153 168.007 142.152C172.587 140.69 176.984 138.705 181.109 136.234C211.68 143.426 240.495 180.154 247.91 210.32L265.239 280.896H163.632L151.372 230.951C150.989 229.394 150.238 227.952 149.182 226.746C148.125 225.54 146.794 224.606 145.301 224.022L57.4309 189.662C47.3857 185.732 39.9476 177.048 38.0165 166.993ZM117.319 234.554V350.426H96.5786V226.444L117.319 234.554ZM117.316 491.999H96.5795V411.163H117.316V491.999ZM248.217 491.999V411.163H268.954V491.999H248.217ZM301.639 370.541L351.533 370.792L405.574 448.931L385.801 467.508C372.524 452.891 313.369 383.777 301.639 370.541ZM463.372 456.654L431.699 486.411C429.737 488.267 427.427 489.715 424.901 490.673C422.376 491.63 419.686 492.078 416.987 491.99C411.357 491.824 406.072 489.219 402.215 485.114L399.428 482.148L424.25 458.827V458.826C434.203 449.474 447.388 444.537 459.532 445.612C463.276 445.945 464.63 448.728 465.038 449.909C465.444 451.085 466.095 454.095 463.372 456.654Z" fill="#3D3D3D"/>
<path d="M355.098 310.845C356.676 311.114 358.295 311.002 359.82 310.516C361.345 310.031 362.731 309.187 363.863 308.056C364.995 306.924 365.839 305.538 366.324 304.013C366.81 302.488 366.922 300.869 366.653 299.291C365.973 295.146 362.631 291.804 358.486 291.123C356.908 290.853 355.289 290.966 353.764 291.451C352.239 291.937 350.852 292.781 349.721 293.912C348.589 295.044 347.745 296.431 347.26 297.956C346.774 299.481 346.662 301.1 346.931 302.678C347.611 306.823 350.954 310.165 355.098 310.845Z" fill="#3D3D3D"/>
</svg>
