<svg width="512" height="512" viewBox="0 0 512 512" fill="none" xmlns="http://www.w3.org/2000/svg">
<g clip-path="url(#clip0_856_3025)">
<mask id="mask0_856_3025" style="mask-type:luminance" maskUnits="userSpaceOnUse" x="0" y="0" width="512" height="512">
<path d="M0 0.00149536H511.999V512H0V0.00149536Z" fill="white"/>
</mask>
<g mask="url(#mask0_856_3025)">
<path d="M270.007 276.004L473.685 72.3255C476.145 69.8653 477.527 66.5287 477.527 63.0495V15.5907C477.527 8.3987 468.831 4.79671 463.745 9.88269L312.945 160.684" fill="black"/>
<path d="M289.616 184.011L255.999 217.629L48.2527 9.88269C43.1667 4.79671 34.4707 8.3987 34.4707 15.5907V63.0496C34.4707 66.5285 35.8527 69.8655 38.3127 72.3255L241.991 276.004" fill="black"/>
<path d="M327.189 328.049L473.684 181.553C474.902 180.335 475.869 178.889 476.528 177.298C477.187 175.706 477.527 174 477.527 172.277V124.819C477.527 117.626 468.831 114.024 463.745 119.11L404.373 178.482" fill="black"/>
<path d="M133.619 276.859L184.808 328.049Z" fill="black"/>
<path d="M227.214 298.072L48.2527 119.11C43.1667 114.024 34.4707 117.626 34.4707 124.819V172.277C34.4707 175.757 35.8537 179.093 38.3137 181.553L110.29 253.531" fill="black"/>
<path d="M381.046 201.811L284.784 298.073Z" fill="black"/>
<path d="M327.159 437.31L473.686 290.783C476.146 288.323 477.529 284.986 477.529 281.506V234.048C477.529 226.856 468.833 223.253 463.747 228.34L355.828 336.258" fill="black"/>
<path d="M214.37 466.915L249.1 501.661C252.885 505.446 259.02 505.447 262.805 501.662L297.09 467.377" fill="black"/>
<path d="M156.099 336.186L48.2517 228.339C43.1657 223.252 34.4697 226.855 34.4697 234.047V282.926C34.4702 285.495 35.491 287.96 37.3077 289.777L184.807 437.34" fill="black"/>
<path d="M255.999 449.509L199.077 469.75C193.153 471.857 186.96 467.358 187.133 461.072L188.794 400.682L151.953 352.802C148.119 347.818 150.484 340.538 156.516 338.76L214.464 321.678L248.616 271.845C252.172 266.658 259.826 266.658 263.381 271.845L297.534 321.678L355.481 338.76C361.514 340.538 363.879 347.818 360.044 352.802L323.204 400.682L324.865 461.072C325.038 467.358 318.845 471.857 312.92 469.75L255.999 449.509Z" fill="black"/>
<path d="M255.999 421.548L214.165 436.424L215.386 392.041L188.311 356.852L230.898 344.298L255.999 307.674L281.1 344.298L323.687 356.852L296.612 392.041L297.833 436.424L255.999 421.548Z" fill="black"/>
</g>
</g>
<defs>
<clipPath id="clip0_856_3025">
<rect width="512" height="512" fill="white"/>
</clipPath>
</defs>
</svg>
