<svg width="512" height="512" viewBox="0 0 512 512" fill="none" xmlns="http://www.w3.org/2000/svg">
<path d="M203.21 426.756C305.847 426.756 389.05 343.553 389.05 240.916C389.05 138.28 305.847 55.0762 203.21 55.0762C100.574 55.0762 17.3701 138.28 17.3701 240.916C17.3701 343.553 100.574 426.756 203.21 426.756Z" fill="white"/>
<path d="M219.108 426.072C213.821 426.523 208.517 426.749 203.21 426.75C100.574 426.75 17.376 343.552 17.376 240.916C17.376 138.28 100.574 55.082 203.21 55.082C208.572 55.082 213.872 55.314 219.108 55.76C123.912 63.814 49.172 143.642 49.172 240.916C49.172 338.19 123.912 418.018 219.108 426.072Z" fill="#B5E5F6"/>
<path d="M389.044 240.918C389.044 343.554 305.846 426.752 203.21 426.752C197.848 426.752 192.548 426.518 187.312 426.074C282.508 418.02 357.248 338.192 357.248 240.92C357.248 143.646 282.508 63.8182 187.312 55.7642C192.599 55.313 197.903 55.0868 203.21 55.0862C305.846 55.0842 389.044 138.282 389.044 240.918Z" fill="#C5EAFF"/>
<path d="M377.4 258.078C429.272 258.078 471.322 300.128 471.322 352C471.341 366.263 468.099 380.341 461.842 393.158C466.342 411.368 475.3 435.008 492.732 447.922C496.114 450.428 494.714 455.766 490.524 456.186C472.6 457.98 439.832 457.876 411.982 439.348C400.973 443.706 389.237 445.936 377.398 445.922C325.526 445.922 283.476 403.872 283.476 352C283.476 300.128 325.528 258.078 377.4 258.078Z" fill="#FFD3DD"/>
<path d="M203.21 144.754C201.089 144.754 199.054 145.597 197.553 147.097C196.053 148.598 195.21 150.632 195.21 152.754V245.63L149.148 278.52C148.293 279.131 147.567 279.904 147.01 280.795C146.454 281.686 146.079 282.678 145.906 283.715C145.733 284.751 145.766 285.811 146.003 286.835C146.24 287.858 146.676 288.825 147.286 289.68C147.897 290.535 148.67 291.262 149.561 291.818C150.452 292.374 151.444 292.75 152.481 292.922C153.517 293.095 154.577 293.062 155.601 292.826C156.624 292.589 157.591 292.153 158.446 291.542L207.86 256.26C208.897 255.52 209.742 254.544 210.325 253.411C210.908 252.279 211.212 251.024 211.212 249.75V152.754C211.211 150.632 210.368 148.598 208.867 147.098C207.367 145.598 205.332 144.755 203.21 144.754ZM203.21 92.7961C201.089 92.7961 199.054 93.639 197.553 95.1393C196.053 96.6396 195.21 98.6744 195.21 100.796V115.628C195.21 117.75 196.053 119.785 197.553 121.285C199.054 122.785 201.089 123.628 203.21 123.628C205.332 123.628 207.367 122.785 208.867 121.285C210.367 119.785 211.21 117.75 211.21 115.628V100.796C211.21 98.6744 210.367 96.6396 208.867 95.1393C207.367 93.639 205.332 92.7961 203.21 92.7961ZM292.674 151.102L302.208 139.74C302.895 138.937 303.416 138.005 303.74 137C304.065 135.994 304.187 134.934 304.099 133.881C304.012 132.827 303.717 131.802 303.231 130.864C302.745 129.925 302.078 129.092 301.268 128.413C300.458 127.734 299.522 127.222 298.513 126.907C297.505 126.591 296.444 126.479 295.391 126.576C294.339 126.673 293.316 126.978 292.382 127.473C291.449 127.967 290.622 128.642 289.95 129.458L280.416 140.82C279.73 141.624 279.209 142.555 278.884 143.561C278.56 144.566 278.438 145.626 278.525 146.68C278.613 147.733 278.908 148.758 279.394 149.697C279.88 150.635 280.547 151.468 281.356 152.147C282.166 152.826 283.102 153.338 284.111 153.654C285.12 153.969 286.181 154.081 287.233 153.984C288.286 153.887 289.308 153.582 290.242 153.087C291.176 152.593 292.003 151.918 292.674 151.102ZM332.274 230.64L346.882 228.064C347.917 227.882 348.906 227.497 349.792 226.933C350.678 226.368 351.444 225.635 352.047 224.774C352.65 223.914 353.077 222.943 353.304 221.917C353.532 220.891 353.555 219.831 353.372 218.796C353.001 216.708 351.816 214.853 350.079 213.636C348.342 212.42 346.193 211.941 344.104 212.306L329.496 214.882C319.19 216.7 321.726 232.486 332.274 230.64ZM255.07 364.362C254.345 362.368 252.857 360.744 250.934 359.847C249.011 358.951 246.81 358.855 244.816 359.58C242.822 360.306 241.198 361.794 240.302 363.717C239.405 365.64 239.309 367.84 240.034 369.834L245.108 383.772C245.834 385.766 247.322 387.39 249.245 388.287C251.168 389.184 253.368 389.28 255.362 388.554C257.356 387.829 258.98 386.341 259.877 384.418C260.774 382.495 260.87 380.294 260.144 378.3L255.07 364.362ZM161.606 359.58C160.619 359.221 159.571 359.059 158.521 359.105C157.471 359.15 156.441 359.403 155.488 359.847C154.536 360.291 153.681 360.918 152.971 361.693C152.261 362.468 151.711 363.375 151.352 364.362L146.278 378.3C145.553 380.294 145.649 382.495 146.546 384.418C147.442 386.341 149.066 387.829 151.06 388.554C153.054 389.28 155.255 389.184 157.178 388.287C159.101 387.39 160.589 385.766 161.314 383.772L166.388 369.834C166.748 368.847 166.909 367.798 166.863 366.749C166.817 365.699 166.565 364.669 166.121 363.717C165.677 362.765 165.05 361.909 164.275 361.199C163.5 360.49 162.594 359.939 161.606 359.58ZM86.9362 303.166L74.0902 310.582C73.1731 311.104 72.3681 311.801 71.7217 312.635C71.0753 313.469 70.6002 314.422 70.3238 315.441C70.0473 316.459 69.975 317.522 70.111 318.568C70.247 319.614 70.5886 320.623 71.1161 321.537C71.6437 322.45 72.3467 323.251 73.1848 323.892C74.0229 324.533 74.9795 325.001 75.9995 325.271C77.0195 325.541 78.0827 325.606 79.128 325.463C80.1734 325.32 81.1801 324.972 82.0902 324.438L94.9362 317.022C95.8534 316.501 96.6584 315.803 97.3048 314.969C97.9512 314.135 98.4263 313.182 98.7027 312.164C98.9792 311.146 99.0515 310.083 98.9155 309.036C98.7795 307.99 98.4379 306.981 97.9104 306.068C97.3828 305.154 96.6798 304.354 95.8417 303.713C95.0036 303.072 94.047 302.603 93.027 302.333C92.007 302.064 90.9438 301.998 89.8984 302.141C88.8531 302.284 87.8464 302.633 86.9362 303.166ZM76.9262 214.882L62.3182 212.306C60.2286 211.938 58.0782 212.415 56.3401 213.632C54.602 214.849 53.4186 216.707 53.0502 218.796C52.6819 220.886 53.1587 223.036 54.3758 224.774C55.5929 226.512 57.4506 227.696 59.5402 228.064L74.1482 230.64C84.7202 232.482 87.2082 216.696 76.9262 214.882ZM116.472 129.456C115.101 127.857 113.154 126.863 111.054 126.691C108.954 126.519 106.871 127.182 105.257 128.536C103.644 129.89 102.629 131.826 102.434 133.924C102.239 136.022 102.88 138.112 104.216 139.74L113.75 151.102C115.122 152.701 117.069 153.695 119.169 153.867C121.268 154.04 123.351 153.377 124.965 152.022C126.579 150.668 127.593 148.732 127.788 146.634C127.983 144.537 127.343 142.447 126.006 140.818L116.472 129.456Z" fill="#3E3241"/>
<path d="M497.498 441.5C482.698 430.54 474.598 410.12 470.298 393.96C497.404 334.326 461.258 264.356 396.738 251.94C403.352 142.482 315.58 47.0801 203.218 47.0801C96.3179 47.0801 9.37793 134.04 9.37793 240.92C9.37793 387.57 166.732 480.848 294.838 411.68C322.066 449.288 369.768 462.692 411.058 448.24C433.218 461.7 457.658 464.92 475.878 464.92C481.778 464.92 487.018 464.58 491.318 464.14C502.766 462.996 506.736 448.342 497.498 441.5ZM25.3779 240.92C25.3779 142.86 105.158 63.0801 203.218 63.0801C304.958 63.0801 386.124 148.692 380.818 250.16C326.704 247.32 275.478 292.172 275.478 352C275.478 368.54 279.438 384.2 286.478 398.02C168.612 460.792 25.3779 374.766 25.3779 240.92ZM416.418 432.68C415.343 431.962 414.108 431.517 412.822 431.385C411.536 431.252 410.237 431.436 409.038 431.92C352.578 454.256 291.478 412.322 291.478 352C291.478 297.682 341.584 256.662 395.158 267.92C449.616 279.428 479.174 339.41 454.658 389.64C453.831 391.329 453.626 393.255 454.078 395.08C458.238 411.9 466.278 433.94 481.478 448.8C464.298 449.5 438.518 447.4 416.418 432.68Z" fill="#3E3241"/>
<path d="M375.118 390.44C370.718 390.44 367.118 394.02 367.118 398.44V407.46C367.118 409.582 367.961 411.617 369.461 413.117C370.962 414.617 372.996 415.46 375.118 415.46C377.24 415.46 379.275 414.617 380.775 413.117C382.275 411.617 383.118 409.582 383.118 407.46V398.44C383.118 394.02 379.538 390.44 375.118 390.44ZM375.118 290.44C372.998 290.445 370.966 291.29 369.467 292.789C367.968 294.288 367.123 296.32 367.118 298.44V368.44C367.118 370.562 367.961 372.597 369.461 374.097C370.962 375.597 372.996 376.44 375.118 376.44C377.24 376.44 379.275 375.597 380.775 374.097C382.275 372.597 383.118 370.562 383.118 368.44V298.44C383.118 294.02 379.538 290.44 375.118 290.44Z" fill="#3E3241"/>
</svg>
