<svg xmlns="http://www.w3.org/2000/svg" xmlns:xlink="http://www.w3.org/1999/xlink" width="60" zoomAndPan="magnify" viewBox="0 0 45 44.999999" height="60" preserveAspectRatio="xMidYMid meet" version="1.0"><defs><g/><clipPath id="28e83b69cd"><path d="M 3.464844 3.367188 L 42.464844 3.367188 L 42.464844 42.367188 L 3.464844 42.367188 Z M 3.464844 3.367188 " clip-rule="nonzero"/></clipPath><clipPath id="241d8d11a1"><path d="M 18 8 L 27 8 L 27 16.769531 L 18 16.769531 Z M 18 8 " clip-rule="nonzero"/></clipPath><clipPath id="2658d57863"><path d="M 17.398438 7.019531 L 27.898438 7.019531 L 27.898438 13 L 17.398438 13 Z M 17.398438 7.019531 " clip-rule="nonzero"/></clipPath><clipPath id="396ffab6a4"><path d="M 18 7.019531 L 21 7.019531 L 21 10 L 18 10 Z M 18 7.019531 " clip-rule="nonzero"/></clipPath></defs><rect x="-4.5" width="54" fill="#ffffff" y="-4.5" height="53.999999" fill-opacity="1"/><rect x="-4.5" width="54" fill="#060644" y="-4.5" height="53.999999" fill-opacity="1"/><g clip-path="url(#28e83b69cd)"><path fill="#d4c4b5" d="M 23.113281 3.367188 C 22.46875 3.367188 21.828125 3.398438 21.1875 3.460938 C 20.546875 3.523438 19.910156 3.617188 19.28125 3.746094 C 18.648438 3.871094 18.023438 4.027344 17.410156 4.214844 C 16.792969 4.398438 16.1875 4.617188 15.59375 4.863281 C 15 5.109375 14.417969 5.382812 13.851562 5.6875 C 13.285156 5.992188 12.734375 6.320312 12.199219 6.679688 C 11.664062 7.035156 11.144531 7.417969 10.648438 7.828125 C 10.152344 8.234375 9.675781 8.667969 9.21875 9.121094 C 8.765625 9.578125 8.332031 10.050781 7.925781 10.550781 C 7.515625 11.046875 7.132812 11.5625 6.777344 12.097656 C 6.417969 12.632812 6.089844 13.183594 5.785156 13.753906 C 5.484375 14.320312 5.207031 14.902344 4.960938 15.496094 C 4.714844 16.089844 4.5 16.695312 4.3125 17.308594 C 4.125 17.925781 3.96875 18.550781 3.84375 19.179688 C 3.71875 19.8125 3.625 20.449219 3.5625 21.089844 C 3.496094 21.726562 3.464844 22.371094 3.464844 23.011719 C 3.464844 23.65625 3.496094 24.300781 3.5625 24.9375 C 3.625 25.578125 3.71875 26.214844 3.84375 26.847656 C 3.96875 27.476562 4.125 28.101562 4.3125 28.714844 C 4.5 29.332031 4.714844 29.9375 4.960938 30.53125 C 5.207031 31.125 5.484375 31.707031 5.785156 32.273438 C 6.089844 32.84375 6.417969 33.394531 6.777344 33.929688 C 7.132812 34.464844 7.515625 34.980469 7.925781 35.476562 C 8.332031 35.972656 8.765625 36.449219 9.21875 36.90625 C 9.675781 37.359375 10.152344 37.792969 10.648438 38.199219 C 11.144531 38.609375 11.664062 38.992188 12.199219 39.347656 C 12.734375 39.707031 13.285156 40.035156 13.851562 40.339844 C 14.417969 40.644531 15 40.917969 15.59375 41.164062 C 16.1875 41.410156 16.792969 41.628906 17.410156 41.8125 C 18.023438 42 18.648438 42.15625 19.28125 42.28125 C 19.910156 42.40625 20.546875 42.503906 21.1875 42.566406 C 21.828125 42.628906 22.46875 42.660156 23.113281 42.660156 C 23.757812 42.660156 24.398438 42.628906 25.039062 42.566406 C 25.679688 42.503906 26.3125 42.40625 26.945312 42.28125 C 27.578125 42.15625 28.199219 42 28.816406 41.8125 C 29.429688 41.628906 30.035156 41.410156 30.628906 41.164062 C 31.226562 40.917969 31.804688 40.644531 32.375 40.339844 C 32.941406 40.035156 33.492188 39.707031 34.027344 39.347656 C 34.5625 38.992188 35.078125 38.609375 35.574219 38.199219 C 36.074219 37.792969 36.550781 37.359375 37.003906 36.90625 C 37.460938 36.449219 37.890625 35.972656 38.300781 35.476562 C 38.707031 34.980469 39.089844 34.464844 39.449219 33.929688 C 39.804688 33.394531 40.136719 32.84375 40.4375 32.273438 C 40.742188 31.707031 41.015625 31.125 41.261719 30.53125 C 41.507812 29.9375 41.726562 29.332031 41.914062 28.714844 C 42.101562 28.101562 42.257812 27.476562 42.382812 26.847656 C 42.507812 26.214844 42.601562 25.578125 42.664062 24.9375 C 42.726562 24.300781 42.757812 23.65625 42.757812 23.011719 C 42.757812 22.371094 42.726562 21.730469 42.664062 21.089844 C 42.597656 20.449219 42.503906 19.8125 42.378906 19.183594 C 42.25 18.550781 42.09375 17.929688 41.90625 17.3125 C 41.71875 16.699219 41.503906 16.09375 41.257812 15.5 C 41.011719 14.90625 40.734375 14.324219 40.433594 13.757812 C 40.128906 13.191406 39.796875 12.640625 39.441406 12.105469 C 39.082031 11.570312 38.699219 11.054688 38.292969 10.554688 C 37.882812 10.058594 37.453125 9.582031 36.996094 9.128906 C 36.542969 8.671875 36.066406 8.242188 35.570312 7.832031 C 35.074219 7.425781 34.558594 7.042969 34.023438 6.683594 C 33.488281 6.328125 32.9375 5.996094 32.371094 5.695312 C 31.800781 5.390625 31.222656 5.117188 30.628906 4.867188 C 30.03125 4.621094 29.429688 4.40625 28.8125 4.21875 C 28.199219 4.03125 27.574219 3.875 26.945312 3.75 C 26.3125 3.621094 25.675781 3.527344 25.039062 3.464844 C 24.398438 3.398438 23.753906 3.367188 23.113281 3.367188 Z M 23.113281 3.367188 " fill-opacity="1" fill-rule="nonzero"/></g><g clip-path="url(#241d8d11a1)"><path fill="#45595a" d="M 26.074219 11.925781 Z M 26.074219 11.925781 L 22.496094 8.757812 L 18.914062 11.925781 L 18.914062 16.457031 C 18.914062 16.574219 19.007812 16.667969 19.125 16.667969 L 21.363281 16.667969 L 21.363281 14.683594 C 21.363281 14.566406 21.457031 14.46875 21.574219 14.46875 L 23.414062 14.46875 C 23.53125 14.46875 23.625 14.566406 23.625 14.683594 L 23.625 16.667969 L 25.863281 16.667969 C 25.980469 16.667969 26.074219 16.574219 26.074219 16.457031 Z M 18.914062 11.925781 Z M 18.914062 11.925781 " fill-opacity="1" fill-rule="nonzero"/></g><g clip-path="url(#2658d57863)"><path fill="#45595a" d="M 22.476562 7.023438 L 17.398438 11.519531 L 17.929688 12.121094 L 22.496094 8.082031 L 27.058594 12.121094 L 27.59375 11.519531 L 22.515625 7.023438 L 22.496094 7.046875 Z M 22.476562 7.023438 " fill-opacity="1" fill-rule="nonzero"/></g><g clip-path="url(#396ffab6a4)"><path fill="#45595a" d="M 18.914062 7.671875 L 20.203125 7.671875 L 20.191406 8.433594 L 18.914062 9.585938 Z M 18.914062 7.671875 " fill-opacity="1" fill-rule="nonzero"/></g><g fill="#3f6267" fill-opacity="1"><g transform="translate(7.659811, 24.001419)"><g><path d="M 1.59375 -1.46875 L 2.828125 -1.46875 L 2.203125 -3.296875 Z M 0.28125 0 L 0.28125 -0.1875 L 0.5 -0.1875 C 0.601562 -0.1875 0.6875 -0.207031 0.75 -0.25 C 0.8125 -0.300781 0.863281 -0.359375 0.90625 -0.421875 C 0.945312 -0.492188 0.976562 -0.5625 1 -0.625 L 2.296875 -4.265625 L 2.453125 -4.265625 L 3.75 -0.453125 C 3.800781 -0.347656 3.851562 -0.273438 3.90625 -0.234375 C 3.96875 -0.203125 4.035156 -0.1875 4.109375 -0.1875 L 4.453125 -0.1875 L 4.453125 0 L 2.59375 0 L 2.59375 -0.1875 L 2.984375 -0.1875 C 3.046875 -0.1875 3.097656 -0.203125 3.140625 -0.234375 C 3.179688 -0.265625 3.203125 -0.300781 3.203125 -0.34375 C 3.203125 -0.363281 3.195312 -0.382812 3.1875 -0.40625 C 3.1875 -0.425781 3.179688 -0.445312 3.171875 -0.46875 L 2.90625 -1.265625 L 1.515625 -1.265625 L 1.375 -0.875 C 1.351562 -0.8125 1.332031 -0.75 1.3125 -0.6875 C 1.300781 -0.625 1.296875 -0.566406 1.296875 -0.515625 C 1.296875 -0.441406 1.316406 -0.367188 1.359375 -0.296875 C 1.398438 -0.222656 1.484375 -0.1875 1.609375 -0.1875 L 1.921875 -0.1875 L 1.921875 0 Z M 0.28125 0 "/></g></g></g><g fill="#3f6267" fill-opacity="1"><g transform="translate(12.243838, 24.001419)"><g><path d="M 1.515625 -2.40625 L 2.09375 -2.40625 C 2.332031 -2.40625 2.519531 -2.441406 2.65625 -2.515625 C 2.789062 -2.597656 2.882812 -2.707031 2.9375 -2.84375 C 3 -2.976562 3.03125 -3.132812 3.03125 -3.3125 C 3.03125 -3.5625 2.960938 -3.75 2.828125 -3.875 C 2.703125 -4.007812 2.523438 -4.078125 2.296875 -4.078125 L 1.6875 -4.078125 C 1.570312 -4.078125 1.515625 -4.023438 1.515625 -3.921875 Z M 0.375 0 L 0.375 -0.1875 L 0.796875 -0.1875 C 0.910156 -0.1875 0.96875 -0.242188 0.96875 -0.359375 L 0.96875 -3.921875 C 0.96875 -4.023438 0.910156 -4.078125 0.796875 -4.078125 L 0.375 -4.078125 L 0.375 -4.265625 L 2.34375 -4.265625 C 2.570312 -4.265625 2.785156 -4.238281 2.984375 -4.1875 C 3.179688 -4.132812 3.34375 -4.035156 3.46875 -3.890625 C 3.601562 -3.753906 3.671875 -3.5625 3.671875 -3.3125 C 3.671875 -3.101562 3.613281 -2.925781 3.5 -2.78125 C 3.394531 -2.632812 3.253906 -2.519531 3.078125 -2.4375 C 2.898438 -2.351562 2.71875 -2.300781 2.53125 -2.28125 L 2.53125 -2.25 C 2.664062 -2.226562 2.789062 -2.179688 2.90625 -2.109375 C 3.019531 -2.046875 3.117188 -1.929688 3.203125 -1.765625 C 3.285156 -1.609375 3.347656 -1.382812 3.390625 -1.09375 C 3.410156 -0.882812 3.429688 -0.722656 3.453125 -0.609375 C 3.472656 -0.492188 3.5 -0.414062 3.53125 -0.375 C 3.570312 -0.332031 3.628906 -0.3125 3.703125 -0.3125 C 3.773438 -0.3125 3.828125 -0.347656 3.859375 -0.421875 C 3.898438 -0.492188 3.925781 -0.578125 3.9375 -0.671875 C 3.945312 -0.773438 3.953125 -0.867188 3.953125 -0.953125 L 4.109375 -0.953125 C 4.109375 -0.890625 4.101562 -0.800781 4.09375 -0.6875 C 4.082031 -0.570312 4.054688 -0.457031 4.015625 -0.34375 C 3.984375 -0.226562 3.925781 -0.128906 3.84375 -0.046875 C 3.757812 0.0351562 3.640625 0.078125 3.484375 0.078125 C 3.347656 0.078125 3.234375 0.0507812 3.140625 0 C 3.054688 -0.0390625 2.988281 -0.109375 2.9375 -0.203125 C 2.875 -0.335938 2.828125 -0.5 2.796875 -0.6875 C 2.773438 -0.875 2.765625 -1.066406 2.765625 -1.265625 C 2.765625 -1.429688 2.742188 -1.582031 2.703125 -1.71875 C 2.660156 -1.863281 2.597656 -1.976562 2.515625 -2.0625 C 2.429688 -2.15625 2.316406 -2.203125 2.171875 -2.203125 L 1.515625 -2.203125 L 1.515625 -0.359375 C 1.515625 -0.304688 1.523438 -0.265625 1.546875 -0.234375 C 1.566406 -0.203125 1.613281 -0.1875 1.6875 -0.1875 L 2.21875 -0.1875 L 2.21875 0 Z M 0.375 0 "/></g></g></g><g fill="#3f6267" fill-opacity="1"><g transform="translate(16.539863, 24.001419)"><g><path d="M 0.375 0 L 0.375 -0.1875 L 0.59375 -0.1875 C 0.695312 -0.1875 0.785156 -0.226562 0.859375 -0.3125 C 0.929688 -0.40625 0.96875 -0.523438 0.96875 -0.671875 L 0.96875 -3.921875 C 0.96875 -4.023438 0.910156 -4.078125 0.796875 -4.078125 L 0.375 -4.078125 L 0.375 -4.265625 L 1.640625 -4.265625 L 2.625 -0.96875 L 3.53125 -4.265625 L 4.78125 -4.265625 L 4.78125 -4.078125 L 4.34375 -4.078125 C 4.238281 -4.078125 4.1875 -4.023438 4.1875 -3.921875 L 4.1875 -0.359375 C 4.1875 -0.242188 4.238281 -0.1875 4.34375 -0.1875 L 4.78125 -0.1875 L 4.78125 0 L 3.03125 0 L 3.03125 -0.1875 L 3.46875 -0.1875 C 3.570312 -0.1875 3.625 -0.242188 3.625 -0.359375 L 3.625 -3.890625 L 2.53125 0.078125 L 2.390625 0.078125 L 1.234375 -3.734375 L 1.203125 -3.734375 L 1.203125 -0.671875 C 1.203125 -0.523438 1.238281 -0.40625 1.3125 -0.3125 C 1.382812 -0.226562 1.472656 -0.1875 1.578125 -0.1875 L 1.796875 -0.1875 L 1.796875 0 Z M 0.375 0 "/></g></g></g><g fill="#3f6267" fill-opacity="1"><g transform="translate(21.567898, 24.001419)"><g><path d="M 1.0625 -2.140625 C 1.0625 -1.734375 1.09375 -1.375 1.15625 -1.0625 C 1.226562 -0.75 1.34375 -0.503906 1.5 -0.328125 C 1.664062 -0.160156 1.882812 -0.078125 2.15625 -0.078125 C 2.4375 -0.078125 2.65625 -0.160156 2.8125 -0.328125 C 2.96875 -0.503906 3.082031 -0.75 3.15625 -1.0625 C 3.226562 -1.375 3.265625 -1.734375 3.265625 -2.140625 C 3.265625 -2.546875 3.226562 -2.898438 3.15625 -3.203125 C 3.082031 -3.515625 2.96875 -3.753906 2.8125 -3.921875 C 2.65625 -4.097656 2.4375 -4.1875 2.15625 -4.1875 C 1.882812 -4.1875 1.664062 -4.097656 1.5 -3.921875 C 1.34375 -3.753906 1.226562 -3.515625 1.15625 -3.203125 C 1.09375 -2.898438 1.0625 -2.546875 1.0625 -2.140625 Z M 0.421875 -2.140625 C 0.421875 -2.421875 0.460938 -2.691406 0.546875 -2.953125 C 0.628906 -3.222656 0.742188 -3.460938 0.890625 -3.671875 C 1.046875 -3.890625 1.226562 -4.0625 1.4375 -4.1875 C 1.65625 -4.3125 1.894531 -4.375 2.15625 -4.375 C 2.414062 -4.375 2.648438 -4.3125 2.859375 -4.1875 C 3.078125 -4.0625 3.265625 -3.890625 3.421875 -3.671875 C 3.578125 -3.460938 3.695312 -3.222656 3.78125 -2.953125 C 3.863281 -2.691406 3.90625 -2.421875 3.90625 -2.140625 C 3.90625 -1.847656 3.863281 -1.566406 3.78125 -1.296875 C 3.695312 -1.035156 3.578125 -0.796875 3.421875 -0.578125 C 3.265625 -0.367188 3.078125 -0.203125 2.859375 -0.078125 C 2.648438 0.046875 2.414062 0.109375 2.15625 0.109375 C 1.894531 0.109375 1.65625 0.046875 1.4375 -0.078125 C 1.226562 -0.203125 1.046875 -0.367188 0.890625 -0.578125 C 0.742188 -0.796875 0.628906 -1.035156 0.546875 -1.296875 C 0.460938 -1.566406 0.421875 -1.847656 0.421875 -2.140625 Z M 0.421875 -2.140625 "/></g></g></g><g fill="#3f6267" fill-opacity="1"><g transform="translate(25.767923, 24.001419)"><g><path d="M 0.375 0 L 0.375 -0.1875 L 0.59375 -0.1875 C 0.707031 -0.1875 0.796875 -0.226562 0.859375 -0.3125 C 0.929688 -0.40625 0.96875 -0.523438 0.96875 -0.671875 L 0.96875 -3.921875 C 0.957031 -4.023438 0.898438 -4.078125 0.796875 -4.078125 L 0.375 -4.078125 L 0.375 -4.265625 L 1.5 -4.265625 L 3.59375 -0.921875 L 3.59375 -3.59375 C 3.59375 -3.75 3.554688 -3.867188 3.484375 -3.953125 C 3.421875 -4.035156 3.332031 -4.078125 3.21875 -4.078125 L 3 -4.078125 L 3 -4.265625 L 4.421875 -4.265625 L 4.421875 -4.078125 L 4.21875 -4.078125 C 4.101562 -4.078125 4.007812 -4.035156 3.9375 -3.953125 C 3.863281 -3.867188 3.828125 -3.75 3.828125 -3.59375 L 3.828125 0.109375 L 3.59375 0.109375 L 1.234375 -3.625 L 1.203125 -3.625 L 1.203125 -0.671875 C 1.203125 -0.523438 1.238281 -0.40625 1.3125 -0.3125 C 1.382812 -0.226562 1.472656 -0.1875 1.578125 -0.1875 L 1.796875 -0.1875 L 1.796875 0 Z M 0.375 0 "/></g></g></g><g fill="#3f6267" fill-opacity="1"><g transform="translate(30.387953, 24.001419)"><g><path d="M 0.375 0 L 0.375 -0.1875 L 0.796875 -0.1875 C 0.910156 -0.1875 0.96875 -0.242188 0.96875 -0.359375 L 0.96875 -3.921875 C 0.96875 -4.023438 0.910156 -4.078125 0.796875 -4.078125 L 0.375 -4.078125 L 0.375 -4.265625 L 2.109375 -4.265625 L 2.109375 -4.078125 L 1.6875 -4.078125 C 1.570312 -4.078125 1.515625 -4.023438 1.515625 -3.921875 L 1.515625 -0.359375 C 1.515625 -0.242188 1.570312 -0.1875 1.6875 -0.1875 L 2.109375 -0.1875 L 2.109375 0 Z M 0.375 0 "/></g></g></g><g fill="#3f6267" fill-opacity="1"><g transform="translate(32.751965, 24.001419)"><g><path d="M 1.59375 -1.46875 L 2.828125 -1.46875 L 2.203125 -3.296875 Z M 0.28125 0 L 0.28125 -0.1875 L 0.5 -0.1875 C 0.601562 -0.1875 0.6875 -0.207031 0.75 -0.25 C 0.8125 -0.300781 0.863281 -0.359375 0.90625 -0.421875 C 0.945312 -0.492188 0.976562 -0.5625 1 -0.625 L 2.296875 -4.265625 L 2.453125 -4.265625 L 3.75 -0.453125 C 3.800781 -0.347656 3.851562 -0.273438 3.90625 -0.234375 C 3.96875 -0.203125 4.035156 -0.1875 4.109375 -0.1875 L 4.453125 -0.1875 L 4.453125 0 L 2.59375 0 L 2.59375 -0.1875 L 2.984375 -0.1875 C 3.046875 -0.1875 3.097656 -0.203125 3.140625 -0.234375 C 3.179688 -0.265625 3.203125 -0.300781 3.203125 -0.34375 C 3.203125 -0.363281 3.195312 -0.382812 3.1875 -0.40625 C 3.1875 -0.425781 3.179688 -0.445312 3.171875 -0.46875 L 2.90625 -1.265625 L 1.515625 -1.265625 L 1.375 -0.875 C 1.351562 -0.8125 1.332031 -0.75 1.3125 -0.6875 C 1.300781 -0.625 1.296875 -0.566406 1.296875 -0.515625 C 1.296875 -0.441406 1.316406 -0.367188 1.359375 -0.296875 C 1.398438 -0.222656 1.484375 -0.1875 1.609375 -0.1875 L 1.921875 -0.1875 L 1.921875 0 Z M 0.28125 0 "/></g></g></g><g fill="#3f6267" fill-opacity="1"><g transform="translate(8.858896, 32.431909)"><g><path d="M 0.5 0 L 0.5 -0.25 L 1.0625 -0.25 C 1.1875 -0.25 1.25 -0.320312 1.25 -0.46875 L 1.25 -5.25 C 1.25 -5.320312 1.234375 -5.367188 1.203125 -5.390625 C 1.179688 -5.421875 1.132812 -5.4375 1.0625 -5.4375 L 0.5 -5.4375 L 0.5 -5.703125 L 3.1875 -5.703125 L 3.1875 -5.4375 L 2.625 -5.4375 C 2.550781 -5.4375 2.5 -5.421875 2.46875 -5.390625 C 2.445312 -5.367188 2.4375 -5.320312 2.4375 -5.25 L 2.4375 -0.46875 C 2.4375 -0.320312 2.5 -0.25 2.625 -0.25 L 3.4375 -0.25 C 3.601562 -0.25 3.75 -0.300781 3.875 -0.40625 C 4.007812 -0.507812 4.125 -0.632812 4.21875 -0.78125 C 4.320312 -0.9375 4.40625 -1.09375 4.46875 -1.25 C 4.539062 -1.40625 4.59375 -1.535156 4.625 -1.640625 C 4.664062 -1.742188 4.695312 -1.859375 4.71875 -1.984375 C 4.75 -2.109375 4.773438 -2.21875 4.796875 -2.3125 C 4.816406 -2.414062 4.828125 -2.46875 4.828125 -2.46875 L 5.09375 -2.46875 L 5.03125 0 Z M 0.5 0 "/></g></g></g><g fill="#3f6267" fill-opacity="1"><g transform="translate(14.218934, 32.431909)"><g><path d="M 0.5625 -2.84375 C 0.5625 -3.226562 0.625 -3.597656 0.75 -3.953125 C 0.875 -4.316406 1.046875 -4.640625 1.265625 -4.921875 C 1.484375 -5.203125 1.734375 -5.425781 2.015625 -5.59375 C 2.304688 -5.757812 2.609375 -5.84375 2.921875 -5.84375 C 3.242188 -5.84375 3.546875 -5.757812 3.828125 -5.59375 C 4.109375 -5.425781 4.359375 -5.203125 4.578125 -4.921875 C 4.804688 -4.640625 4.984375 -4.316406 5.109375 -3.953125 C 5.234375 -3.597656 5.296875 -3.226562 5.296875 -2.84375 C 5.296875 -2.457031 5.234375 -2.085938 5.109375 -1.734375 C 4.984375 -1.378906 4.804688 -1.0625 4.578125 -0.78125 C 4.359375 -0.5 4.109375 -0.273438 3.828125 -0.109375 C 3.546875 0.0546875 3.242188 0.140625 2.921875 0.140625 C 2.609375 0.140625 2.304688 0.0546875 2.015625 -0.109375 C 1.734375 -0.273438 1.484375 -0.5 1.265625 -0.78125 C 1.046875 -1.0625 0.875 -1.378906 0.75 -1.734375 C 0.625 -2.085938 0.5625 -2.457031 0.5625 -2.84375 Z M 1.921875 -1.640625 C 1.921875 -1.066406 2.007812 -0.664062 2.1875 -0.4375 C 2.375 -0.21875 2.617188 -0.109375 2.921875 -0.109375 C 3.234375 -0.109375 3.476562 -0.21875 3.65625 -0.4375 C 3.84375 -0.664062 3.9375 -1.066406 3.9375 -1.640625 L 3.9375 -4.046875 C 3.9375 -4.617188 3.84375 -5.015625 3.65625 -5.234375 C 3.476562 -5.460938 3.234375 -5.578125 2.921875 -5.578125 C 2.617188 -5.578125 2.375 -5.460938 2.1875 -5.234375 C 2.007812 -5.015625 1.921875 -4.617188 1.921875 -4.046875 Z M 1.921875 -1.640625 "/></g></g></g><g fill="#3f6267" fill-opacity="1"><g transform="translate(19.914981, 32.431909)"><g><path d="M 0.5625 -2.84375 C 0.5625 -3.25 0.609375 -3.628906 0.703125 -3.984375 C 0.804688 -4.347656 0.953125 -4.664062 1.140625 -4.9375 C 1.335938 -5.21875 1.570312 -5.4375 1.84375 -5.59375 C 2.125 -5.757812 2.441406 -5.84375 2.796875 -5.84375 C 3.015625 -5.84375 3.207031 -5.800781 3.375 -5.71875 C 3.550781 -5.644531 3.71875 -5.554688 3.875 -5.453125 C 3.9375 -5.410156 3.988281 -5.378906 4.03125 -5.359375 C 4.082031 -5.335938 4.125 -5.328125 4.15625 -5.328125 C 4.195312 -5.328125 4.226562 -5.34375 4.25 -5.375 C 4.28125 -5.40625 4.304688 -5.441406 4.328125 -5.484375 L 4.46875 -5.78125 L 4.734375 -5.78125 L 4.734375 -3.3125 L 4.484375 -3.3125 C 4.398438 -3.78125 4.273438 -4.179688 4.109375 -4.515625 C 3.953125 -4.859375 3.757812 -5.117188 3.53125 -5.296875 C 3.3125 -5.484375 3.066406 -5.578125 2.796875 -5.578125 C 2.648438 -5.578125 2.507812 -5.53125 2.375 -5.4375 C 2.238281 -5.34375 2.128906 -5.179688 2.046875 -4.953125 C 1.960938 -4.734375 1.921875 -4.429688 1.921875 -4.046875 L 1.921875 -1.640625 C 1.921875 -1.265625 1.96875 -0.960938 2.0625 -0.734375 C 2.164062 -0.515625 2.289062 -0.351562 2.4375 -0.25 C 2.582031 -0.15625 2.726562 -0.109375 2.875 -0.109375 C 3.257812 -0.109375 3.5625 -0.195312 3.78125 -0.375 C 4.007812 -0.550781 4.179688 -0.753906 4.296875 -0.984375 C 4.390625 -1.160156 4.457031 -1.359375 4.5 -1.578125 C 4.550781 -1.804688 4.585938 -2.015625 4.609375 -2.203125 L 4.890625 -2.203125 C 4.878906 -1.984375 4.847656 -1.753906 4.796875 -1.515625 C 4.742188 -1.273438 4.664062 -1.0625 4.5625 -0.875 C 4.40625 -0.5625 4.1875 -0.3125 3.90625 -0.125 C 3.625 0.0507812 3.28125 0.140625 2.875 0.140625 C 2.488281 0.140625 2.148438 0.0546875 1.859375 -0.109375 C 1.566406 -0.273438 1.320312 -0.5 1.125 -0.78125 C 0.9375 -1.070312 0.796875 -1.394531 0.703125 -1.75 C 0.609375 -2.101562 0.5625 -2.46875 0.5625 -2.84375 Z M 0.5625 -2.84375 "/></g></g></g><g fill="#3f6267" fill-opacity="1"><g transform="translate(24.747024, 32.431909)"><g><path d="M 1.953125 -1.8125 L 3.4375 -1.8125 L 2.71875 -4.015625 Z M 0.359375 0 L 0.359375 -0.25 L 0.625 -0.25 C 0.789062 -0.25 0.9375 -0.316406 1.0625 -0.453125 C 1.1875 -0.585938 1.273438 -0.738281 1.328125 -0.90625 L 3.015625 -5.84375 L 3.359375 -5.84375 L 5.0625 -0.65625 C 5.15625 -0.382812 5.3125 -0.25 5.53125 -0.25 L 5.859375 -0.25 L 5.859375 0 L 3.046875 0 L 3.046875 -0.25 L 3.625 -0.25 C 3.6875 -0.25 3.738281 -0.273438 3.78125 -0.328125 C 3.820312 -0.378906 3.84375 -0.441406 3.84375 -0.515625 C 3.84375 -0.535156 3.835938 -0.566406 3.828125 -0.609375 C 3.816406 -0.660156 3.804688 -0.707031 3.796875 -0.75 L 3.53125 -1.515625 L 1.859375 -1.515625 L 1.6875 -1.03125 C 1.625 -0.875 1.59375 -0.734375 1.59375 -0.609375 C 1.59375 -0.523438 1.628906 -0.441406 1.703125 -0.359375 C 1.773438 -0.285156 1.878906 -0.25 2.015625 -0.25 L 2.390625 -0.25 L 2.390625 0 Z M 0.359375 0 "/></g></g></g><g fill="#3f6267" fill-opacity="1"><g transform="translate(30.779069, 32.431909)"><g><path d="M 0.5 0 L 0.5 -0.25 L 1.0625 -0.25 C 1.1875 -0.25 1.25 -0.320312 1.25 -0.46875 L 1.25 -5.25 C 1.25 -5.320312 1.234375 -5.367188 1.203125 -5.390625 C 1.179688 -5.421875 1.132812 -5.4375 1.0625 -5.4375 L 0.5 -5.4375 L 0.5 -5.703125 L 3.1875 -5.703125 L 3.1875 -5.4375 L 2.625 -5.4375 C 2.550781 -5.4375 2.5 -5.421875 2.46875 -5.390625 C 2.445312 -5.367188 2.4375 -5.320312 2.4375 -5.25 L 2.4375 -0.46875 C 2.4375 -0.320312 2.5 -0.25 2.625 -0.25 L 3.4375 -0.25 C 3.601562 -0.25 3.75 -0.300781 3.875 -0.40625 C 4.007812 -0.507812 4.125 -0.632812 4.21875 -0.78125 C 4.320312 -0.9375 4.40625 -1.09375 4.46875 -1.25 C 4.539062 -1.40625 4.59375 -1.535156 4.625 -1.640625 C 4.664062 -1.742188 4.695312 -1.859375 4.71875 -1.984375 C 4.75 -2.109375 4.773438 -2.21875 4.796875 -2.3125 C 4.816406 -2.414062 4.828125 -2.46875 4.828125 -2.46875 L 5.09375 -2.46875 L 5.03125 0 Z M 0.5 0 "/></g></g></g></svg>